<?xml version="1.0" standalone="no"?>
<!DOCTYPE svg PUBLIC "-//W3C//DTD SVG 20010904//EN"
 "http://www.w3.org/TR/2001/REC-SVG-20010904/DTD/svg10.dtd">
<svg version="1.0" xmlns="http://www.w3.org/2000/svg"
 width="1150.000000pt" height="1150.000000pt" viewBox="0 0 1150.000000 1150.000000"
 preserveAspectRatio="xMidYMid meet">

<g transform="translate(0.000000,1150.000000) scale(0.100000,-0.100000)"
fill="#000000" stroke="none">
<path d="M0 5750 l0 -5750 5750 0 5750 0 0 5750 0 5750 -5750 0 -5750 0 0
-5750z m4890 2723 c0 -10 -43 -229 -95 -488 -299 -1476 -476 -2375 -491 -2490
-22 -177 -15 -424 16 -545 44 -166 117 -291 236 -398 l66 -59 -81 -414 c-45
-228 -91 -463 -103 -524 -12 -60 -25 -114 -29 -119 -9 -10 -90 11 -218 55 -46
16 -86 27 -88 25 -3 -3 14 -10 36 -17 23 -7 38 -15 34 -18 -4 -3 -9 -15 -11
-26 -2 -15 0 -17 6 -6 11 16 46 1 56 -24 3 -9 10 -14 14 -11 12 7 123 -101
142 -139 8 -16 20 -48 27 -70 30 -104 32 -118 22 -137 -6 -11 -8 -26 -5 -34 3
-8 0 -14 -7 -14 -24 0 -264 126 -352 185 -119 79 -322 281 -402 400 -63 93
-151 260 -173 329 -7 22 -38 74 -70 116 -273 370 -376 853 -300 1412 14 102
53 302 265 1368 258 1299 326 1634 330 1648 3 9 130 12 590 12 550 0 585 -1
585 -17z m3393 10 c2 -5 -44 -251 -104 -548 -59 -297 -162 -817 -229 -1155
-232 -1172 -250 -1262 -285 -1398 -113 -449 -289 -837 -516 -1137 -288 -383
-694 -659 -1159 -790 -162 -46 -260 -65 -260 -51 0 7 39 217 86 467 47 250 93
496 102 547 l16 92 66 49 c114 85 244 241 330 396 61 109 151 345 197 515 18
66 61 273 108 510 74 376 105 528 120 600 9 41 32 154 51 250 19 96 50 254 69
350 24 122 255 1262 264 1308 2 6 1140 1 1144 -5z m376 -425 c0 -13 -3 -17 -6
-10 -2 6 -17 12 -31 13 l-27 1 25 8 c38 12 40 12 39 -12z m-2756 -2955 c2 -5
-20 -127 -49 -273 -29 -146 -69 -346 -88 -445 -20 -99 -45 -225 -55 -280 -11
-55 -63 -320 -116 -590 -53 -269 -110 -563 -128 -652 l-32 -163 -512 0 c-282
0 -513 2 -513 4 0 7 131 660 160 796 17 80 46 226 66 325 19 99 37 187 39 195
2 8 20 94 39 190 56 285 176 874 181 888 3 9 113 12 504 12 275 0 502 -3 504
-7z m1741 -1135 c-51 -84 -151 -226 -197 -278 -12 -14 -36 -43 -54 -66 -56
-71 -220 -226 -338 -319 -80 -62 -276 -179 -380 -225 -27 -12 -72 -32 -100
-45 -64 -28 -247 -88 -350 -114 -110 -27 -265 -54 -272 -48 -4 5 17 121 33
177 3 12 30 19 100 29 53 7 104 16 113 21 9 4 54 15 101 24 93 17 172 38 180
46 3 3 30 12 60 19 30 7 69 19 85 26 17 7 59 25 95 40 82 34 101 43 120 54 8
5 42 22 75 38 33 16 72 37 87 47 15 10 32 15 37 11 7 -3 8 0 5 9 -4 10 -1 16
9 16 9 0 28 11 43 25 15 14 32 25 38 25 6 0 19 9 29 20 9 11 23 20 30 20 7 0
20 8 29 18 36 36 54 50 76 56 12 4 22 13 22 20 0 13 93 86 109 86 6 0 15 10
21 23 10 20 10 20 -3 5 -8 -10 -25 -18 -38 -17 -15 0 -18 3 -9 6 32 11 90 56
90 70 0 7 11 18 24 24 13 6 47 47 75 90 29 43 55 79 57 79 3 0 2 -6 -2 -12z
m-111 -123 c-3 -9 -8 -14 -10 -11 -3 3 -2 9 2 15 9 16 15 13 8 -4z m-1717
-797 c-3 -13 -10 -61 -17 -106 -11 -73 -16 -85 -37 -93 -22 -9 -222 -13 -222
-5 0 2 6 19 14 37 25 58 88 118 152 144 54 22 60 23 66 7 6 -15 7 -14 8 3 l1
20 9 -20 c8 -18 9 -17 9 8 1 15 6 27 11 27 6 0 8 -10 6 -22z"/>
<path d="M4188 3433 c7 -3 16 -2 19 1 4 3 -2 6 -13 5 -11 0 -14 -3 -6 -6z"/>
</g>
</svg>
